<svg xmlns="http://www.w3.org/2000/svg" viewBox="0 0 58.32 43.86"><defs><style>.cls-1{fill:#fff;opacity:0.39;}</style></defs><title>initials-opaque</title><g id="Layer_2" data-name="Layer 2"><g id="overlay"><path class="cls-1" d="M21.66,8.87v.86H14.89V51.45h6.77v.86H2v-.86H8.79V9.73H2V8.87Z" transform="translate(-2.01 -8.69)"/><path class="cls-1" d="M47.52,28.82v.12C55,29.67,60.33,34,60.33,40.05c0,7.74-6.16,12.5-16.77,12.5-2,0-4.89-.24-6.9-.24H25.5v-.86h6.77V9.73H25.5V8.87h9.39c3.3,0,6.41-.18,9-.18C53,8.69,58.32,13,58.32,19.06,58.32,23.88,54.05,28,47.52,28.82Zm-9.15-.24h5.79c5,0,7.45-2.75,7.45-9.34s-2.38-9.7-9.09-9.7a30.78,30.78,0,0,0-4.15.19Zm0,22.87c1,.06,2.32.25,3.72.25,3.3,0,6.83-.25,9-2.75,1.52-1.83,2.26-4.51,2.26-9,0-6.89-3.11-10.55-8.12-10.55H38.37Z" transform="translate(-2.01 -8.69)"/></g></g></svg>
