<svg xmlns="http://www.w3.org/2000/svg" viewBox="0 0 543.94 40.97"><defs><style>.cls-1{fill:#fff;}</style></defs><title>logo-fullname</title><g id="Layer_2" data-name="Layer 2"><g id="overlay"><path class="cls-1" d="M19.52,8v.77h-6.1V46.39h6.1v.77H1.81v-.77H7.92V8.78H1.81V8Z" transform="translate(-1.81 -7.02)"/><path class="cls-1" d="M48.78,8h.77V18h-.66C47.79,11.53,43.83,7.79,38.5,7.79c-4.79,0-9.08,2.53-9.08,7.53,0,3.36,2.09,5.28,5.06,6.49,2.42,1,5,1.71,6.88,2.31A46.91,46.91,0,0,1,48,26.43,9,9,0,0,1,53.4,35c0,7-5.33,13-14.13,13-7.26,0-8.69-2-11.33-2-1.05,0-1.27.33-1.65,1.21h-.83V35.34h.61C28.43,46,33.6,47.22,39.27,47.22c7.64,0,9.9-4.9,9.9-8.86,0-4.62-3.25-6.87-7.32-8.19-2.09-.66-4.34-1.27-6.54-2-4.79-1.59-8.86-3.79-8.86-9.62C26.45,11.8,31.51,7,38.5,7c5,0,6.71,2.14,8.63,2.14C48.18,9.16,48.29,8.94,48.78,8Z" transform="translate(-1.81 -7.02)"/><path class="cls-1" d="M77.66,7H79l15,39.37h4.9v.77H81.89v-.77H88L82.22,31.1H69.46L63.69,46.39h6.1v.77H58v-.77h4.84ZM69.79,30.33h12.1l-6-16Z" transform="translate(-1.81 -7.02)"/><path class="cls-1" d="M120.28,26v.11c6.71.66,11.55,4.56,11.55,10,0,7-5.56,11.27-15.12,11.27-1.82,0-4.4-.22-6.22-.22H100.43v-.77h6.1V8.78h-6.1V8h8.47c3,0,5.77-.17,8.08-.17,8.25,0,13,3.91,13,9.35C130,21.54,126.17,25.28,120.28,26ZM112,25.77h5.23c4.45,0,6.71-2.47,6.71-8.41s-2.15-8.75-8.2-8.75a28,28,0,0,0-3.74.17Zm0,20.62c.94.06,2.09.22,3.36.22,3,0,6.16-.22,8.08-2.47,1.37-1.65,2-4.07,2-8.09,0-6.21-2.81-9.51-7.32-9.51H112Z" transform="translate(-1.81 -7.02)"/><path class="cls-1" d="M168.57,8v9.51H168c-2-6.6-5-8.74-10-8.74h-9.24v17h3.79c5.06,0,6.38-2.2,7.81-8.08h.61v17.1h-.61c-.93-4.29-2-8.25-7-8.25h-4.62V46.39h10.61c5.55,0,9.62-4.45,10.72-11.27h.61v12H137.11v-.77h6.11V8.78h-6.11V8Z" transform="translate(-1.81 -7.02)"/><path class="cls-1" d="M193.54,8v.77h-6.1V46.39h9.9c5.93,0,9.73-3.9,11.49-11.27h.6v12h-33.6v-.77h6.11V8.78h-6.11V8Z" transform="translate(-1.81 -7.02)"/><path class="cls-1" d="M248.65,26v.11c6.71.66,11.55,4.56,11.55,10,0,7-5.56,11.27-15.12,11.27-1.82,0-4.4-.22-6.22-.22H228.8v-.77h6.1V8.78h-6.1V8h8.47c3,0,5.77-.17,8.08-.17,8.25,0,13,3.91,13,9.35C258.38,21.54,254.53,25.28,248.65,26Zm-8.25-.22h5.23c4.45,0,6.7-2.47,6.7-8.41s-2.14-8.75-8.19-8.75a28,28,0,0,0-3.74.17Zm0,20.62c.94.06,2.09.22,3.36.22,3,0,6.15-.22,8.08-2.47,1.37-1.65,2-4.07,2-8.09,0-6.21-2.8-9.51-7.31-9.51H240.4Z" transform="translate(-1.81 -7.02)"/><path class="cls-1" d="M296.94,8v9.51h-.61c-2-6.6-4.95-8.74-10-8.74h-9.23v17h3.79c5.06,0,6.38-2.2,7.81-8.08h.6v17.1h-.6c-.94-4.29-2-8.25-7-8.25h-4.62V46.39H287.7c5.55,0,9.62-4.45,10.72-11.27H299v12H265.48v-.77h6.11V8.78h-6.11V8Z" transform="translate(-1.81 -7.02)"/><path class="cls-1" d="M324.11,25.88V26c4.67.61,7.2,2,8.74,3.74,2.09,2.31,1.93,5.11,2.37,11.16.27,3.74,1.43,5.78,3.63,5.78a4.36,4.36,0,0,0,2.86-1.16l.49.61a6.63,6.63,0,0,1-4.78,1.43c-5.34,0-7.76-1.93-8.09-10.4-.16-4.73-.77-6.87-1.92-8.3s-2.92-2.31-5.94-2.31H315.8V46.39h6.11v.77H304.2v-.77h6.11V8.78H304.2V8h10.73c.6,0,3-.17,5.05-.17,4.13,0,6.38.33,8,1.05,3.13,1.37,5.83,4.4,5.83,8.19C333.79,21.65,330.16,25.17,324.11,25.88Zm-8.31-.11H321c4.45,0,6.71-2.47,6.71-8.52,0-5.28-1.87-8.64-8-8.64-1.16,0-3,.06-3.91.17Z" transform="translate(-1.81 -7.02)"/><path class="cls-1" d="M377.57,8h.82V19h-.6c-1.16-7-5.28-11.22-12.1-11.22-8.75,0-12.87,6.38-12.87,19.47,0,5.66.55,9.56,1.59,12.2,1.54,3.91,4.13,7.76,10.78,7.76,6.44,0,10-4.18,10-9.3V33.14h-7.1v-.77h16.78v.77h-4.4V45.62h-.66c-.88-.88-1.1-1-2.09-1-3.14,0-4.57,3.41-12.49,3.41-5.39,0-9.29-2.31-12.54-5.61A21,21,0,0,1,354,11.47,17.53,17.53,0,0,1,365.91,7c5.28,0,6.65,2.14,9.18,2.14A2.56,2.56,0,0,0,377.57,8Z" transform="translate(-1.81 -7.02)"/><path class="cls-1" d="M405.4,8v.77h-6.11V46.39h9.9c5.94,0,9.74-3.9,11.5-11.27h.6v12h-33.6v-.77h6.1V8.78h-6.1V8Z" transform="translate(-1.81 -7.02)"/><path class="cls-1" d="M442.58,8v.77h-6.11V35.5c0,7.59,2.42,11.72,9.13,11.72,3.74,0,6.66-1,8.64-3.14s3.13-4.4,3.13-8.74V8.78h-6.1V8h13v.77h-6.1V35.67a11.93,11.93,0,0,1-3.52,9c-2.31,2.25-5.56,3.3-10.12,3.3-9,0-13.59-4.62-13.59-13V8.78h-6.1V8Z" transform="translate(-1.81 -7.02)"/><path class="cls-1" d="M478.38,8,497,38h.11V8.78H491V8h13v.77H497.9V47.93h-1.1L473.65,11h-.11V46.39h6.11v.77h-13v-.77h6.11V8.78h-6.11V8Z" transform="translate(-1.81 -7.02)"/><path class="cls-1" d="M539.54,42.49a19.75,19.75,0,0,1-11.71,4.78c-2,.11-3.19.11-4,.11s-1.43,0-2.2-.05c-2.14-.06-4.07-.17-5.06-.17h-9.73v-.77h6.1V8.78h-6.1V8h10.56c.44,0,4.84-.17,6.93-.17,14.51,0,21.44,8.8,21.44,19.75C545.75,35.06,542.62,39.9,539.54,42.49Zm-21.12,3.9c1.32.11,3,.22,4.84.22,4.18,0,7.26-.66,9.29-2,4.13-2.7,6.88-8.36,6.88-16.77,0-13-5.06-19.2-16.55-19.2-1.32,0-2.53.11-4.46.17Z" transform="translate(-1.81 -7.02)"/></g></g></svg>
