<svg xmlns="http://www.w3.org/2000/svg" viewBox="0 0 194.97 17.25"><title>logo-nav_2</title><g id="Layer_2" data-name="Layer 2"><g id="overlay"><path d="M1.89,3.29h1.4V19.71H1.89Z" transform="translate(-1.89 -2.88)"/><path d="M7.59,15.41a3.92,3.92,0,0,0,1.59,2.66,6.59,6.59,0,0,0,3.63.81,6.64,6.64,0,0,0,2.06-.27,3.52,3.52,0,0,0,1.3-.74,2.7,2.7,0,0,0,.69-1.08,4,4,0,0,0,.21-1.31,4.79,4.79,0,0,0-.13-1.09,2.51,2.51,0,0,0-.48-1,3,3,0,0,0-1-.74,6.22,6.22,0,0,0-1.75-.51l-2-.35a13.29,13.29,0,0,1-2.13-.52,5.49,5.49,0,0,1-1.58-.84,3.3,3.3,0,0,1-1-1.3,4.73,4.73,0,0,1-.34-1.91,3.85,3.85,0,0,1,.48-2A4,4,0,0,1,8.36,3.94a5.82,5.82,0,0,1,1.86-.8,9.29,9.29,0,0,1,2.27-.26,8.49,8.49,0,0,1,2.57.33,5.29,5.29,0,0,1,1.71.88,4.09,4.09,0,0,1,1,1.26,7.63,7.63,0,0,1,.58,1.41l-1.29.37a7.58,7.58,0,0,0-.54-1.28,3,3,0,0,0-.83-.95,3.73,3.73,0,0,0-1.3-.6,7.47,7.47,0,0,0-1.91-.21,7.44,7.44,0,0,0-2.11.25A3.86,3.86,0,0,0,9,5a2.38,2.38,0,0,0-.76,1A3.32,3.32,0,0,0,8,7.27a3.81,3.81,0,0,0,.16,1.19,2,2,0,0,0,.55.88,3.28,3.28,0,0,0,1,.62,9.72,9.72,0,0,0,1.64.44l2.32.41a10.49,10.49,0,0,1,2.15.6,4.61,4.61,0,0,1,1.51.93,3.54,3.54,0,0,1,.89,1.35,5.33,5.33,0,0,1,.28,1.83,4.51,4.51,0,0,1-.36,1.79,4.09,4.09,0,0,1-1.1,1.46,5.53,5.53,0,0,1-1.8,1,8,8,0,0,1-2.53.36,11.23,11.23,0,0,1-2.47-.25,6.23,6.23,0,0,1-2-.81A4.72,4.72,0,0,1,6.9,17.59a5.05,5.05,0,0,1-.69-2.18Z" transform="translate(-1.89 -2.88)"/><path d="M26,3.29h1.65l6.49,16.42H32.66l-2-5H23l-1.95,5H19.53Zm4.13,10.12L26.79,4.83l-3.33,8.58Z" transform="translate(-1.89 -2.88)"/><path d="M36.34,3.29h5.2a10.29,10.29,0,0,1,2.81.32,4.59,4.59,0,0,1,1.74.89A2.9,2.9,0,0,1,47,5.8a5,5,0,0,1,.24,1.56,3.92,3.92,0,0,1-.58,2.16A4,4,0,0,1,44.71,11a5.68,5.68,0,0,1,1.46.72,3.71,3.71,0,0,1,.94,1,3.49,3.49,0,0,1,.51,1.13,5.17,5.17,0,0,1,.15,1.23,5.43,5.43,0,0,1-.3,1.82,3.68,3.68,0,0,1-1,1.49,4.73,4.73,0,0,1-1.79,1,8.87,8.87,0,0,1-2.72.36H36.34Zm5.4,7.2a5.07,5.07,0,0,0,3.12-.77,2.76,2.76,0,0,0,1-2.29,2.56,2.56,0,0,0-1-2.22,6,6,0,0,0-3.37-.7H37.72v6Zm.19,8a8.5,8.5,0,0,0,2.15-.23,3.25,3.25,0,0,0,1.33-.66,2.19,2.19,0,0,0,.69-1,4.48,4.48,0,0,0,.2-1.37,3.19,3.19,0,0,0-1-2.55A5,5,0,0,0,42,11.75H37.72v6.72Z" transform="translate(-1.89 -2.88)"/><path d="M50.69,3.29H61V4.55H52.09v6h8.47v1.31H52.09v6.53h9.32l-.32,1.29H50.69Z" transform="translate(-1.89 -2.88)"/><path d="M64.21,3.29h1.41V18.4h8.92l-.3,1.31h-10Z" transform="translate(-1.89 -2.88)"/><path d="M82,3.29h5.2A10.42,10.42,0,0,1,90,3.61a4.59,4.59,0,0,1,1.74.89,3,3,0,0,1,.88,1.3,5,5,0,0,1,.24,1.56,4,4,0,0,1-.57,2.16A4.09,4.09,0,0,1,90.37,11a5.84,5.84,0,0,1,1.46.72,3.88,3.88,0,0,1,.94,1,3.71,3.71,0,0,1,.51,1.13,5.7,5.7,0,0,1-.15,3,3.68,3.68,0,0,1-1,1.49,4.7,4.7,0,0,1-1.8,1,8.8,8.8,0,0,1-2.71.36H82Zm5.41,7.2a5.06,5.06,0,0,0,3.11-.77,2.73,2.73,0,0,0,1-2.29,2.53,2.53,0,0,0-1-2.22,6,6,0,0,0-3.36-.7H83.37v6Zm.18,8a8.45,8.45,0,0,0,2.15-.23,3.3,3.3,0,0,0,1.34-.66,2.19,2.19,0,0,0,.69-1A4.49,4.49,0,0,0,92,15.18a3.16,3.16,0,0,0-1-2.55,4.94,4.94,0,0,0-3.29-.88H83.37v6.72Z" transform="translate(-1.89 -2.88)"/><path d="M96.34,3.29h10.33V4.55H97.75v6h8.46v1.31H97.75v6.53h9.31l-.32,1.29H96.34Z" transform="translate(-1.89 -2.88)"/><path d="M109.87,3.29H115a9.14,9.14,0,0,1,2.91.39,4.84,4.84,0,0,1,1.79,1,3.22,3.22,0,0,1,.9,1.43,5.64,5.64,0,0,1,.24,1.63,4.87,4.87,0,0,1-.7,2.67,4.41,4.41,0,0,1-2.29,1.68l3.55,7.61h-1.64l-3.29-7.29-.8.08c-.28,0-.57,0-.88,0h-3.56v7.17h-1.38Zm5.34,8a7.39,7.39,0,0,0,2.05-.24,3,3,0,0,0,1.3-.7,2.43,2.43,0,0,0,.68-1.1,5.1,5.1,0,0,0,.2-1.48,4.36,4.36,0,0,0-.21-1.41,2.17,2.17,0,0,0-.72-1,3.53,3.53,0,0,0-1.38-.63,10.12,10.12,0,0,0-2.18-.2h-3.7v6.78Z" transform="translate(-1.89 -2.88)"/><path d="M130.94,11.59h6v6.35a6.64,6.64,0,0,1-1.34,1,9.14,9.14,0,0,1-1.54.68,11.24,11.24,0,0,1-1.62.39,11.35,11.35,0,0,1-1.62.12,8.16,8.16,0,0,1-3.13-.56,6.3,6.3,0,0,1-2.37-1.65,7.36,7.36,0,0,1-1.5-2.7,12,12,0,0,1-.52-3.66,11.26,11.26,0,0,1,.57-3.74,7.89,7.89,0,0,1,1.54-2.72,6.41,6.41,0,0,1,2.31-1.65,7.25,7.25,0,0,1,2.88-.56,6.14,6.14,0,0,1,4,1.18,6.14,6.14,0,0,1,2,3.3l-1.31.3a7.75,7.75,0,0,0-.59-1.44,3.82,3.82,0,0,0-2.24-1.86,5.7,5.7,0,0,0-1.86-.27,5.47,5.47,0,0,0-2.52.56,5,5,0,0,0-1.83,1.54,7.26,7.26,0,0,0-1.12,2.34,11.18,11.18,0,0,0-.38,3,11.52,11.52,0,0,0,.37,3,6.66,6.66,0,0,0,1.13,2.33,5.07,5.07,0,0,0,1.9,1.53,6.15,6.15,0,0,0,2.67.54,9.66,9.66,0,0,0,2.57-.35,6.6,6.6,0,0,0,2.22-1.1V12.86h-4.69Z" transform="translate(-1.89 -2.88)"/><path d="M140.27,3.29h1.41V18.4h8.92l-.3,1.31h-10Z" transform="translate(-1.89 -2.88)"/><path d="M152.35,3.29h1.4v10a6.81,6.81,0,0,0,1.08,4.19,4.21,4.21,0,0,0,3.57,1.4,5.79,5.79,0,0,0,2.13-.35,3.37,3.37,0,0,0,1.4-1.06,4.47,4.47,0,0,0,.78-1.75,11,11,0,0,0,.24-2.43v-10h1.41v10a10.58,10.58,0,0,1-.41,3.12,5.6,5.6,0,0,1-1.17,2.13,4.56,4.56,0,0,1-1.89,1.21,7.56,7.56,0,0,1-2.51.39,7.76,7.76,0,0,1-2.57-.39,4.63,4.63,0,0,1-1.89-1.23,5.59,5.59,0,0,1-1.17-2.16,10.85,10.85,0,0,1-.4-3.16Z" transform="translate(-1.89 -2.88)"/><path d="M168,3.29h1.54l9.2,14.21V3.29h1.36V19.71h-1.52L169.37,5.45V19.71H168Z" transform="translate(-1.89 -2.88)"/><path d="M183.88,3.29h5.54a9.14,9.14,0,0,1,3.11.49,5.86,5.86,0,0,1,2.33,1.5,6.81,6.81,0,0,1,1.48,2.52,11.24,11.24,0,0,1,.51,3.58A10.93,10.93,0,0,1,196.3,15a6.75,6.75,0,0,1-1.59,2.6,6.41,6.41,0,0,1-2.5,1.55,9.75,9.75,0,0,1-3.29.52h-5ZM189,18.47a6,6,0,0,0,4.83-1.83,7.84,7.84,0,0,0,1.54-5.21,8,8,0,0,0-1.44-5.13,5.44,5.44,0,0,0-4.52-1.79h-4.13v14Z" transform="translate(-1.89 -2.88)"/></g></g></svg>
