<svg xmlns="http://www.w3.org/2000/svg" viewBox="0 0 52.58 39.54"><defs><style>.cls-1{fill:#fff;}</style></defs><title>logo-white</title><g id="Layer_2" data-name="Layer 2"><g id="overlay"><path class="cls-1" d="M19.52,8v.77h-6.1V46.39h6.1v.77H1.81v-.77H7.92V8.78H1.81V8Z" transform="translate(-1.81 -7.84)"/><path class="cls-1" d="M42.84,26v.11c6.71.66,11.55,4.56,11.55,10,0,7-5.56,11.27-15.12,11.27-1.82,0-4.4-.22-6.22-.22H23v-.77h6.1V8.78H23V8h8.47c3,0,5.77-.17,8.08-.17,8.25,0,13,3.91,13,9.35C52.58,21.54,48.73,25.28,42.84,26Zm-8.25-.22h5.23c4.45,0,6.71-2.47,6.71-8.41s-2.15-8.75-8.2-8.75a28,28,0,0,0-3.74.17Zm0,20.62c.94.06,2.09.22,3.36.22,3,0,6.16-.22,8.08-2.47,1.38-1.65,2-4.07,2-8.09,0-6.21-2.81-9.51-7.32-9.51H34.59Z" transform="translate(-1.81 -7.84)"/></g></g></svg>
