<?xml version="1.0" standalone="no"?>
<!DOCTYPE svg PUBLIC "-//W3C//DTD SVG 20010904//EN"
 "http://www.w3.org/TR/2001/REC-SVG-20010904/DTD/svg10.dtd">
<svg version="1.0" xmlns="http://www.w3.org/2000/svg"
 width="700.000000pt" height="700.000000pt" viewBox="0 0 700.000000 700.000000"
 preserveAspectRatio="xMidYMid meet">
<metadata>
Created by potrace 1.11, written by Peter Selinger 2001-2013
</metadata>
<g transform="translate(0.000000,700.000000) scale(0.100000,-0.100000)"
fill="#000000" stroke="none">
<path d="M1290 3495 l0 -2345 200 0 200 0 0 2345 0 2345 -200 0 -200 0 0
-2345z"/>
<path d="M2767 5834 c-4 -4 -7 -1060 -7 -2346 l0 -2338 920 0 c966 0 1014 2
1245 46 240 47 436 124 603 236 327 221 495 571 495 1033 0 244 -37 416 -124
585 -78 150 -213 298 -362 396 -74 49 -291 157 -339 169 -16 4 -28 10 -28 14
0 4 28 19 63 34 143 63 329 213 434 352 162 212 232 532 188 858 -46 348 -184
563 -472 733 -179 106 -360 160 -703 210 -99 15 -238 18 -1010 21 -492 3 -899
1 -903 -3z m1758 -345 c213 -18 407 -70 590 -158 86 -41 109 -58 168 -121 47
-51 81 -101 112 -164 70 -142 80 -192 79 -396 -1 -160 -3 -183 -28 -263 -83
-274 -243 -427 -556 -531 -219 -72 -176 -69 -992 -73 l-738 -4 0 855 0 856
573 3 c314 1 595 3 622 4 28 2 104 -2 170 -8z m89 -2070 c207 -18 414 -83 603
-190 175 -99 309 -294 370 -537 24 -94 23 -382 -1 -505 -52 -268 -162 -418
-389 -532 -164 -82 -371 -129 -628 -143 -74 -4 -421 -6 -771 -4 l-638 3 0 954
0 955 643 3 c353 1 653 3 667 4 14 2 79 -2 144 -8z"/>
</g>
</svg>
